:FULLY-SPECIFIED
:FORCE-ALL-JOINTS-BE-3DOF
:DEGREES
122
root -3.48187 17.2294 -5.87408 -1.36661 8.65695 -6.01063
lfemur -32.2708 4.45063 -20.4016
ltibia 43.5435 0 0
lfoot -12.7464 3.04725 -0.129066
ltoes 4.85982 0 0
rfemur -0.35461 8.46282 24.5982
rtibia 34.2072 0 0
rfoot -9.60797 1.5766 0.194362
rtoes -9.68527 0 0
lowerback 8.51948 -1.38674 3.54322
upperback -0.112031 -1.18102 5.15426
thorax -4.91214 -0.587174 3.57929
lowerneck -15.8239 -3.6496 -8.80747
upperneck 23.2591 -3.48455 2.9309
head 10.2795 -2.02361 2.05035
lclavicle 7.40473e-15 4.68337e-14 1.72856e-30
lhumerus -34.3561 11.4463 85.1202
lradius 23.7734 0 0
lwrist -9.88402 0 0
lhand -15.7058 23.8687 0.0461899
lfingers 7.12502 0 0
lthumb 10.4837 53.5797 0.0431633
rclavicle 7.40473e-15 4.68337e-14 1.72856e-30
rhumerus -38.5596 -11.9743 -75.2454
rradius 41.0998 0 0
rwrist -1.65849 0 0
rhand -17.9577 10.4097 0.000318443
rfingers 7.12502 0 0
rthumb 8.31077 -19.397 0.00182136
123
root -3.46597 17.2295 -5.66833 -1.38969 9.07912 -5.92923
lfemur -32.2807 4.15348 -20.7177
ltibia 41.6545 0 0
lfoot -11.9975 3.4158 -0.123151
ltoes 7.17318 0 0
rfemur 0.0477506 7.70592 24.6164
rtibia 33.919 0 0
rfoot -10.006 0.685524 0.154058
rtoes -11.4371 0 0
lowerback 8.58088 -1.43237 3.59346
upperback 0.056842 -1.24812 5.07715
thorax -4.76872 -0.619621 3.4697
lowerneck -16.7095 -3.72149 -9.12092
upperneck 23.5143 -3.49059 3.24079
head 10.5496 -2.02011 2.20121
lclavicle 2.95593e-14 -3.90413e-14 1.37801e-29
lhumerus -33.8934 12.3636 84.5997
lradius 22.8034 0 0
lwrist -11.0906 0 0
lhand -15.997 23.5043 0.0471388
lfingers 7.12502 0 0
lthumb 10.2027 53.2293 0.0441103
rclavicle 2.95593e-14 -3.90413e-14 1.37801e-29
rhumerus -38.1183 -11.55 -75.6318
rradius 41.5158 0 0
rwrist -2.33011 0 0
rhand -17.6547 10.398 -0.0007811
rfingers 7.12502 0 0
rthumb 8.60315 -19.3977 0.000685003
124
root -3.44787 17.2422 -5.45565 -1.2546 9.46523 -5.68095
lfemur -32.3341 4.00377 -21.273
ltibia 39.6085 0 0
lfoot -10.9241 3.05112 -0.102389
ltoes 7.37327 0 0
rfemur 0.546536 6.86621 24.3927
rtibia 33.3991 0 0
rfoot -10.3764 -0.0261591 0.112516
rtoes -11.3809 0 0
lowerback 8.4261 -1.2628 3.34759
upperback -0.275822 -1.05525 4.81756
thorax -5.03052 -0.524651 3.30656
lowerneck -15.4171 -3.74412 -8.91786
upperneck 23.1966 -3.75804 3.45308
head 10.2053 -2.10417 2.22094
lclavicle 1.01877e-14 -5.40694e-15 1.24555e-31
lhumerus -34.7242 11.5673 84.3451
lradius 22.5962 0 0
lwrist -11.2205 0 0
lhand -14.9601 23.3229 0.038196
lfingers 7.12502 0 0
lthumb 11.2031 52.9997 0.036033
rclavicle 1.01877e-14 -5.40694e-15 1.24555e-31
rhumerus -38.867 -11.431 -75.748
rradius 41.84 0 0
rwrist -2.90438 0 0
rhand -17.5248 10.2707 0.00180227
rfingers 7.12502 0 0
rthumb 8.72846 -19.5195 0.00322732
125
root -3.43038 17.2324 -5.24937 -1.08682 9.7825 -5.5251
lfemur -32.2813 3.4428 -21.5106
ltibia 37.5539 0 0
lfoot -10.0206 3.1075 -0.067435
ltoes 8.83617 0 0
rfemur 0.996436 6.25986 24.3299
rtibia 32.6677 0 0
rfoot -10.6201 -1.0164 0.0973084
rtoes -11.843 0 0
lowerback 8.30685 -1.18456 3.16105
upperback -0.487002 -0.972204 4.61826
thorax -5.18446 -0.486698 3.19856
lowerneck -15.3358 -3.76724 -8.34258
upperneck 23.2446 -3.90674 3.28562
head 10.211 -2.14034 2.05248
lclavicle 7.70788e-15 -3.67354e-14 1.13264e-29
lhumerus -35.2201 11.3017 83.918
lradius 22.304 0 0
lwrist -11.4924 0 0
lhand -14.5506 23.3423 0.0272774
lfingers 7.12502 0 0
lthumb 11.598 52.9994 0.0259155
rclavicle 7.70788e-15 -3.67354e-14 1.13264e-29
rhumerus -39.1071 -11.4038 -75.9815
rradius 41.9823 0 0
rwrist -2.94222 0 0
rhand -17.5059 10.5676 0.0117225
rfingers 7.12502 0 0
rthumb 8.74674 -19.221 0.0129422
126
root -3.40899 17.2157 -5.04471 -0.981539 10.0116 -5.58598
lfemur -32.0881 3.07116 -21.5551
ltibia 35.4965 0 0
lfoot -9.41108 3.39806 -0.021549
ltoes 6.63516 0 0
rfemur 1.47559 5.89157 24.5193
rtibia 31.7586 0 0
rfoot -10.7699 -1.86827 0.0858702
rtoes -11.4247 0 0
lowerback 8.26096 -1.13736 3.28327
upperback -0.584339 -0.897658 4.60693
thorax -5.26266 -0.451386 3.10452
lowerneck -14.5774 -3.55265 -8.37229
upperneck 22.7314 -3.65114 3.25127
head 9.85234 -2.03525 2.08411
lclavicle 2.63588e-14 -1.65389e-14 9.50877e-30
lhumerus -35.5195 11.8646 83.4198
lradius 21.8061 0 0
lwrist -12.3885 0 0
lhand -14.8699 23.7984 0.0267853
lfingers 7.12502 0 0
lthumb 11.2901 53.4724 0.0254231
rclavicle 2.63588e-14 -1.65389e-14 9.50877e-30
rhumerus -39.1581 -11.1747 -75.9961
rradius 42.1564 0 0
rwrist -2.84387 0 0
rhand -17.2542 10.561 0.0193982
rfingers 7.12502 0 0
rthumb 8.98959 -19.2169 0.0204575
